@startuml
'https://plantuml.com/class-diagram


class MindMap {
    - mindmapNodes : List<Node>
}

class Node {
    parentId : Long
    children : List<Node>
    incomingEdge :  Edge
}


class Edge {
    x1: int
    y1: int
    x2: int
    y2 : int
}

MindMap o-- Node

Node -left-> Edge
Node o-- Node


@enduml